<svg width="288" height="75" viewBox="0 0 288 75" fill="none" xmlns="http://www.w3.org/2000/svg">
<path d="M4.62 52C4.34 52 4.102 51.916 3.906 51.748C3.738 51.552 3.654 51.314 3.654 51.034V23.608C3.654 23.3 3.738 23.062 3.906 22.894C4.102 22.698 4.34 22.6 4.62 22.6H16.128C19.124 22.6 21.378 23.314 22.89 24.742C24.402 26.17 25.158 28.046 25.158 30.37C25.158 31.938 24.794 33.24 24.066 34.276C23.366 35.312 22.526 36.068 21.546 36.544C22.722 37.132 23.716 38.042 24.528 39.274C25.34 40.506 25.746 41.92 25.746 43.516C25.746 45.084 25.382 46.512 24.654 47.8C23.954 49.088 22.904 50.11 21.504 50.866C20.104 51.622 18.424 52 16.464 52H4.62ZM15.498 35.032C17.262 35.032 18.606 34.626 19.53 33.814C20.482 33.002 20.958 31.868 20.958 30.412C20.958 28.984 20.496 27.892 19.572 27.136C18.648 26.38 17.29 26.002 15.498 26.002H7.77V35.032H15.498ZM15.918 48.598C17.682 48.598 19.054 48.122 20.034 47.17C21.042 46.218 21.546 45 21.546 43.516C21.546 41.976 21.042 40.744 20.034 39.82C19.054 38.868 17.682 38.392 15.918 38.392H7.77V48.598H15.918ZM42.7127 52.42C39.0447 52.42 36.2027 51.468 34.1867 49.564C32.1987 47.632 31.1487 44.734 31.0367 40.87C31.0087 40.03 30.9947 38.84 30.9947 37.3C30.9947 35.76 31.0087 34.584 31.0367 33.772C31.1487 29.992 32.2407 27.122 34.3127 25.162C36.3847 23.174 39.1847 22.18 42.7127 22.18C46.2127 22.18 48.9987 23.174 51.0707 25.162C53.1427 27.122 54.2347 29.992 54.3467 33.772C54.4027 35.396 54.4307 36.572 54.4307 37.3C54.4307 38 54.4027 39.19 54.3467 40.87C54.2347 44.734 53.1707 47.632 51.1547 49.564C49.1667 51.468 46.3527 52.42 42.7127 52.42ZM42.7127 48.85C44.9247 48.85 46.6887 48.178 48.0047 46.834C49.3207 45.49 50.0347 43.432 50.1467 40.66C50.2027 38.98 50.2307 37.86 50.2307 37.3C50.2307 36.684 50.2027 35.564 50.1467 33.94C50.0347 31.168 49.3067 29.11 47.9627 27.766C46.6467 26.422 44.8967 25.75 42.7127 25.75C40.5007 25.75 38.7227 26.422 37.3787 27.766C36.0627 29.11 35.3487 31.168 35.2367 33.94C35.2087 34.752 35.1947 35.872 35.1947 37.3C35.1947 38.7 35.2087 39.82 35.2367 40.66C35.3487 43.432 36.0627 45.49 37.3787 46.834C38.7227 48.178 40.5007 48.85 42.7127 48.85ZM61.9385 52C61.6585 52 61.4205 51.916 61.2245 51.748C61.0565 51.552 60.9725 51.314 60.9725 51.034V23.608C60.9725 23.3 61.0565 23.062 61.2245 22.894C61.4205 22.698 61.6585 22.6 61.9385 22.6H63.8705C64.3745 22.6 64.7245 22.796 64.9205 23.188L78.8645 44.608V23.608C78.8645 23.3 78.9485 23.062 79.1165 22.894C79.3125 22.698 79.5505 22.6 79.8305 22.6H81.8465C82.1545 22.6 82.3925 22.698 82.5605 22.894C82.7565 23.062 82.8545 23.3 82.8545 23.608V50.992C82.8545 51.272 82.7565 51.51 82.5605 51.706C82.3925 51.902 82.1685 52 81.8885 52H79.8725C79.4525 52 79.1165 51.804 78.8645 51.412L64.9625 30.202V51.034C64.9625 51.314 64.8645 51.552 64.6685 51.748C64.4725 51.916 64.2345 52 63.9545 52H61.9385ZM91.5616 52C91.2816 52 91.0436 51.916 90.8476 51.748C90.6796 51.552 90.5956 51.314 90.5956 51.034V23.566C90.5956 23.286 90.6796 23.062 90.8476 22.894C91.0436 22.698 91.2816 22.6 91.5616 22.6H93.7876C94.0676 22.6 94.2916 22.698 94.4596 22.894C94.6556 23.062 94.7536 23.286 94.7536 23.566V51.034C94.7536 51.314 94.6556 51.552 94.4596 51.748C94.2916 51.916 94.0676 52 93.7876 52H91.5616ZM109.892 52C109.612 52 109.374 51.916 109.178 51.748C109.01 51.552 108.926 51.314 108.926 51.034V26.338H100.862C100.582 26.338 100.344 26.254 100.148 26.086C99.98 25.89 99.896 25.652 99.896 25.372V23.608C99.896 23.328 99.98 23.09 100.148 22.894C100.344 22.698 100.582 22.6 100.862 22.6H121.106C121.414 22.6 121.652 22.698 121.82 22.894C122.016 23.062 122.114 23.3 122.114 23.608V25.372C122.114 25.652 122.016 25.89 121.82 26.086C121.624 26.254 121.386 26.338 121.106 26.338H113.084V51.034C113.084 51.314 112.986 51.552 112.79 51.748C112.594 51.916 112.356 52 112.076 52H109.892ZM122.151 52C121.927 52 121.731 51.916 121.563 51.748C121.395 51.58 121.311 51.384 121.311 51.16C121.311 50.936 121.325 50.782 121.353 50.698L131.769 23.524C131.993 22.908 132.441 22.6 133.113 22.6H135.969C136.641 22.6 137.089 22.908 137.313 23.524L147.687 50.698L147.771 51.16C147.771 51.384 147.687 51.58 147.519 51.748C147.351 51.916 147.155 52 146.931 52H144.789C144.481 52 144.243 51.93 144.075 51.79C143.907 51.622 143.795 51.454 143.739 51.286L141.429 45.322H127.653L125.343 51.286C125.287 51.454 125.161 51.622 124.965 51.79C124.797 51.93 124.573 52 124.293 52H122.151ZM140.211 41.71L134.541 26.8L128.871 41.71H140.211ZM151.842 55.15C151.618 55.15 151.436 55.066 151.296 54.898C151.184 54.73 151.142 54.52 151.17 54.268L152.136 48.262C152.248 47.45 152.64 47.044 153.312 47.044H156.126C156.322 47.044 156.476 47.114 156.588 47.254C156.728 47.394 156.798 47.562 156.798 47.758C156.798 47.898 156.756 48.122 156.672 48.43L154.446 54.184C154.306 54.52 154.152 54.758 153.984 54.898C153.816 55.066 153.564 55.15 153.228 55.15H151.842ZM175.242 52C174.962 52 174.724 51.916 174.528 51.748C174.36 51.552 174.276 51.314 174.276 51.034V23.608C174.276 23.3 174.36 23.062 174.528 22.894C174.724 22.698 174.962 22.6 175.242 22.6H177.174C177.678 22.6 178.028 22.796 178.224 23.188L192.168 44.608V23.608C192.168 23.3 192.252 23.062 192.42 22.894C192.616 22.698 192.854 22.6 193.134 22.6H195.15C195.458 22.6 195.696 22.698 195.864 22.894C196.06 23.062 196.158 23.3 196.158 23.608V50.992C196.158 51.272 196.06 51.51 195.864 51.706C195.696 51.902 195.472 52 195.192 52H193.176C192.756 52 192.42 51.804 192.168 51.412L178.266 30.202V51.034C178.266 51.314 178.168 51.552 177.972 51.748C177.776 51.916 177.538 52 177.258 52H175.242ZM204.865 52C204.585 52 204.347 51.916 204.151 51.748C203.983 51.552 203.899 51.314 203.899 51.034V23.608C203.899 23.3 203.983 23.062 204.151 22.894C204.347 22.698 204.585 22.6 204.865 22.6H222.211C222.491 22.6 222.715 22.698 222.883 22.894C223.079 23.062 223.177 23.3 223.177 23.608V25.204C223.177 25.484 223.093 25.722 222.925 25.918C222.757 26.086 222.519 26.17 222.211 26.17H207.931V35.368H221.287C221.567 35.368 221.791 35.466 221.959 35.662C222.155 35.83 222.253 36.068 222.253 36.376V37.93C222.253 38.21 222.155 38.448 221.959 38.644C221.791 38.812 221.567 38.896 221.287 38.896H207.931V48.43H222.547C222.855 48.43 223.093 48.514 223.261 48.682C223.429 48.85 223.513 49.088 223.513 49.396V51.034C223.513 51.314 223.415 51.552 223.219 51.748C223.051 51.916 222.827 52 222.547 52H204.865ZM211.795 20.5C211.347 20.5 211.123 20.276 211.123 19.828C211.123 19.604 211.193 19.422 211.333 19.282L214.483 15.502C214.763 15.194 214.987 14.984 215.155 14.872C215.351 14.76 215.645 14.704 216.037 14.704H219.145C219.397 14.704 219.593 14.788 219.733 14.956C219.873 15.096 219.943 15.292 219.943 15.544C219.943 15.74 219.873 15.908 219.733 16.048L214.861 20.038C214.637 20.234 214.427 20.36 214.231 20.416C214.035 20.472 213.783 20.5 213.475 20.5H211.795Z" fill="#FFA7C0"/>
<path d="M268.556 21.9368C268.557 20.0157 267.943 18.1492 266.811 16.6331C265.68 15.117 264.095 14.0381 262.309 13.5674C260.523 13.0966 258.638 13.2609 256.952 14.0343C255.265 14.8076 253.875 16.1458 253 17.8366C252.126 16.1458 250.735 14.8076 249.049 14.0343C247.362 13.2609 245.477 13.0966 243.691 13.5674C241.905 14.0381 240.321 15.117 239.189 16.6331C238.058 18.1492 237.444 20.0157 237.445 21.9368C237.443 23.9064 238.09 25.8168 239.278 27.3479L239.275 27.3499L253 45.0899L266.725 27.3499L266.722 27.3479C267.91 25.8168 268.558 23.9064 268.556 21.9368Z" fill="#FFA7C0"/>
<path d="M253.022 61.8404C255.706 61.8404 257.883 59.5708 257.883 56.771C257.883 53.9712 255.706 51.7015 253.022 51.7015C250.337 51.7015 248.16 53.9712 248.16 56.771C248.16 59.5708 250.337 61.8404 253.022 61.8404Z" fill="#FFA7C0"/>
</svg>
